<svg width="575" height="575" viewBox="0 0 575 575" fill="none" xmlns="http://www.w3.org/2000/svg">
<path fill-rule="evenodd" clip-rule="evenodd" d="M57.6408 409.174C57.5612 407.669 58.5163 406.149 60.506 405.001L280.476 278.001C284.303 275.792 290.506 275.791 294.333 278.001L514.303 405.001C516.14 406.061 517.095 407.438 517.168 408.827V432.827C517.095 431.438 516.14 430.061 514.303 429.001L294.333 302.001C290.506 299.791 284.303 299.792 280.476 302.001L60.506 429.001C58.5163 430.149 57.5612 431.669 57.6408 433.174V409.174Z" fill="#0F2B46" stroke="#EAFFE9" stroke-linejoin="round"/>
<path fill-rule="evenodd" clip-rule="evenodd" d="M517.168 408.826C517.248 410.331 516.293 411.851 514.303 413L294.333 540C290.506 542.209 284.302 542.209 280.476 540L60.5058 413C58.6691 411.939 57.7141 410.563 57.6406 409.174V433.174C57.7141 434.563 58.6691 435.939 60.5058 437L280.476 564C284.302 566.209 290.506 566.209 294.333 564L514.303 437C516.293 435.851 517.248 434.331 517.168 432.826V408.826Z" fill="#0F2B46" stroke="#EAFFE9" stroke-linejoin="round"/>
<rect width="270" height="270" rx="8" transform="matrix(0.866025 -0.5 0.866025 0.5 53.5776 409)" fill="#0F2B46" stroke="#EAFFE9"/>
<path fill-rule="evenodd" clip-rule="evenodd" d="M280.33 72.043C281.338 72.5557 281.967 73.746 281.967 75.4691V121.469C281.967 124.783 279.641 128.812 276.771 130.469L81.0489 243.469C79.6714 244.264 78.4192 244.369 77.4892 243.895L70.561 239.895C71.4909 240.369 72.7432 240.264 74.1207 239.469L269.842 126.469C272.712 124.812 275.039 120.783 275.039 117.469V71.4691C275.039 69.746 274.41 68.5557 273.402 68.043L280.33 72.043Z" fill="#0F2B46" stroke="#0F2B46"/>
<path fill-rule="evenodd" clip-rule="evenodd" d="M77.4895 243.896C76.4821 243.383 75.853 242.193 75.853 240.469V194.47C75.853 191.156 78.1794 187.126 81.0492 185.47L276.771 72.4695C278.149 71.6741 279.401 71.5701 280.331 72.0433L273.402 68.0433C272.473 67.5701 271.22 67.6741 269.843 68.4695L74.121 181.47C71.2512 183.126 68.9248 187.156 68.9248 190.47V236.469C68.9248 238.193 69.5539 239.383 70.5613 239.896L77.4895 243.896Z" fill="#0F2B46" stroke="#0F2B46"/>
<rect width="238" height="58" rx="6" transform="matrix(0.866025 -0.5 0 1 75.853 188.469)" fill="#0F2B46"/>
<rect width="238" height="58" rx="6" transform="matrix(0.866025 -0.5 0 1 75.853 188.469)" stroke="#EAFFE9"/>
<path d="M101.75 184.525L105.492 182.365V218.077L101.75 220.237V184.525ZM88.4067 210.085C88.4067 205.605 89.7508 201.357 92.4389 197.341C95.1271 193.293 98.8683 189.885 103.663 187.117C108.512 184.317 112.254 183.405 114.886 184.381C117.547 185.309 118.877 188.013 118.877 192.493C118.877 196.973 117.533 201.237 114.845 205.285C112.184 209.285 108.457 212.669 103.663 215.437C98.7297 218.285 94.9469 219.253 92.3142 218.341C89.7092 217.413 88.4067 214.661 88.4067 210.085ZM92.2727 207.853C92.2727 211.341 93.1595 213.437 94.9331 214.141C96.7344 214.829 99.4087 214.149 102.956 212.101L104.536 211.189C108 209.189 110.605 206.821 112.351 204.085C114.124 201.301 115.011 198.181 115.011 194.725C115.011 191.333 114.11 189.277 112.309 188.557C110.508 187.805 107.917 188.405 104.536 190.357L102.831 191.341C99.4226 193.309 96.8037 195.701 94.9747 198.517C93.1733 201.317 92.2727 204.429 92.2727 207.853ZM122.666 194.529C122.666 191.873 123.068 189.369 123.871 187.017C124.675 184.665 125.825 182.561 127.322 180.705C128.846 178.801 130.661 177.241 132.767 176.025C134.873 174.809 136.647 174.313 138.088 174.537C139.557 174.713 140.679 175.569 141.455 177.105C142.231 178.609 142.619 180.769 142.619 183.585C142.619 186.241 142.231 188.785 141.455 191.217C140.679 193.617 139.571 195.777 138.13 197.697C136.716 199.569 135.026 201.073 133.058 202.209C131.229 203.265 129.608 203.641 128.195 203.337C126.809 203.017 125.784 202.041 125.119 200.409L126.282 199.641V214.665L122.666 216.753V194.529ZM138.795 185.649C138.795 183.537 138.559 181.897 138.088 180.729C137.617 179.561 136.924 178.889 136.01 178.713C135.123 178.489 134 178.769 132.643 179.553C130.647 180.705 129.081 182.409 127.945 184.665C126.837 186.905 126.282 189.449 126.282 192.297V194.073C126.282 195.641 126.463 196.897 126.823 197.841C127.183 198.753 127.71 199.377 128.402 199.713C128.984 199.985 129.622 200.065 130.315 199.953C131.035 199.793 131.825 199.465 132.684 198.969C134.652 197.833 136.162 196.113 137.215 193.809C138.268 191.473 138.795 188.753 138.795 185.649ZM146.142 181.551C146.142 178.831 146.572 176.247 147.431 173.799C148.29 171.319 149.495 169.087 151.047 167.103C152.599 165.119 154.428 163.519 156.534 162.303C158.668 161.071 160.497 160.543 162.022 160.719C163.573 160.879 164.751 161.703 165.555 163.191C166.386 164.663 166.802 166.743 166.802 169.431C166.802 172.151 166.386 174.743 165.555 177.207C164.724 179.671 163.532 181.895 161.98 183.879C160.428 185.863 158.571 187.479 156.41 188.727C154.248 189.975 152.405 190.511 150.881 190.335C149.357 190.159 148.179 189.335 147.348 187.863C146.544 186.343 146.142 184.239 146.142 181.551ZM149.967 179.247C149.967 181.135 150.188 182.687 150.632 183.903C151.075 185.119 151.768 185.871 152.71 186.159C153.68 186.431 154.927 186.127 156.451 185.247C158.003 184.351 159.25 183.215 160.193 181.839C161.162 180.447 161.869 178.887 162.313 177.159C162.756 175.399 162.978 173.575 162.978 171.687C162.978 169.799 162.756 168.263 162.313 167.079C161.869 165.863 161.162 165.135 160.193 164.895C159.25 164.607 158.003 164.911 156.451 165.807C154.927 166.687 153.68 167.823 152.71 169.215C151.768 170.559 151.075 172.095 150.632 173.823C150.188 175.519 149.967 177.327 149.967 179.247ZM185.135 146.558L189.126 144.254C188.627 146.942 188.101 149.454 187.546 151.79C187.02 154.11 186.41 156.414 185.717 158.702C185.052 160.974 184.276 163.358 183.389 165.854C182.53 168.334 181.533 171.086 180.396 174.11L176.531 176.342L167.926 156.494L172.124 154.07L179.316 172.478L177.819 173.438C178.789 170.702 179.634 168.23 180.355 166.022C181.103 163.798 181.754 161.678 182.309 159.662C182.863 157.614 183.362 155.55 183.805 153.47C184.276 151.342 184.72 149.038 185.135 146.558ZM196.699 157.21V143.338L189.84 147.298V143.842L208.671 132.97V136.426L200.316 141.25V154.306C200.316 156.258 200.551 157.514 201.022 158.074C201.521 158.618 202.366 158.546 203.558 157.858C204.029 157.586 204.528 157.25 205.054 156.85C205.581 156.418 206.163 155.874 206.8 155.218L207.466 158.05C206.69 158.882 205.941 159.57 205.221 160.114C204.5 160.69 203.71 161.226 202.851 161.722C200.773 162.922 199.221 163.146 198.196 162.394C197.198 161.626 196.699 159.898 196.699 157.21ZM211.96 149.743V131.071L215.576 128.983V146.743C215.576 148.311 215.757 149.295 216.117 149.695C216.505 150.079 217.17 149.999 218.112 149.455C218.5 149.231 218.86 148.991 219.193 148.735C219.525 148.479 219.83 148.207 220.107 147.919L220.606 150.895C219.913 151.519 219.318 152.007 218.819 152.359C218.32 152.743 217.793 153.095 217.239 153.415C215.466 154.439 214.135 154.647 213.248 154.039C212.389 153.415 211.96 151.983 211.96 149.743ZM215.202 117.055L219.193 114.751L215.285 125.599L212.292 127.327L215.202 117.055ZM221.834 139.627C221.834 137.643 222.194 135.643 222.915 133.627C223.663 131.563 224.688 129.611 225.991 127.771C227.321 125.915 228.859 124.291 230.605 122.899L233.307 123.211C231.672 124.379 230.272 125.731 229.108 127.267C227.972 128.755 227.113 130.355 226.531 132.067C225.949 133.747 225.658 135.499 225.658 137.323C225.658 139.851 226.212 141.499 227.321 142.267C228.429 143.003 230.009 142.779 232.06 141.595C234.055 140.443 235.593 138.883 236.674 136.915C237.783 134.899 238.337 132.659 238.337 130.195C238.337 128.211 237.99 126.795 237.298 125.947C236.632 125.083 235.538 124.627 234.014 124.579L228.235 124.363C227.432 124.315 226.767 124.155 226.24 123.883C225.741 123.563 225.367 123.107 225.118 122.515C224.868 121.923 224.744 121.195 224.744 120.331C224.744 118.347 225.45 116.371 226.864 114.403C228.305 112.387 230.217 110.691 232.6 109.315C235.067 107.891 236.979 107.363 238.337 107.731C239.695 108.099 240.512 109.355 240.789 111.499L237.505 113.923C237.256 112.627 236.729 111.891 235.926 111.715C235.15 111.491 234.027 111.803 232.559 112.651C231.145 113.467 230.065 114.363 229.316 115.339C228.568 116.315 228.194 117.331 228.194 118.387C228.194 118.899 228.277 119.299 228.443 119.587C228.61 119.875 228.928 120.075 229.399 120.187C229.871 120.267 230.536 120.331 231.395 120.379L235.51 120.499C237.866 120.547 239.556 121.155 240.582 122.323C241.635 123.475 242.161 125.315 242.161 127.843C242.161 130.115 241.732 132.363 240.873 134.587C240.041 136.763 238.85 138.779 237.298 140.635C235.773 142.443 233.986 143.939 231.935 145.123C229.857 146.323 228.055 146.899 226.531 146.851C225.035 146.787 223.871 146.147 223.039 144.931C222.236 143.667 221.834 141.899 221.834 139.627ZM245.689 124.27C245.689 121.486 246.063 118.87 246.811 116.422C247.56 113.974 248.64 111.814 250.054 109.942C251.467 108.038 253.144 106.526 255.084 105.406C256.636 104.51 257.952 104.102 259.033 104.182C260.114 104.262 261.042 104.878 261.818 106.03C262.622 107.166 263.314 108.894 263.896 111.214L262.774 111.814L265.767 100.006L269.467 97.8697L264.478 115.534L264.686 111.19L266.598 117.718C266.848 118.566 267.083 119.198 267.305 119.614C267.527 119.998 267.776 120.206 268.053 120.238C268.33 120.27 268.663 120.174 269.051 119.95C269.3 119.806 269.536 119.654 269.758 119.494C270.007 119.286 270.256 119.062 270.506 118.822L271.129 121.582C270.714 122.046 270.243 122.494 269.716 122.926C269.19 123.358 268.718 123.694 268.303 123.934C267.554 124.366 266.903 124.598 266.349 124.63C265.822 124.646 265.365 124.446 264.977 124.03C264.617 123.566 264.298 122.886 264.021 121.99L262.4 116.734L263.689 115.75C262.996 118.742 262.22 121.302 261.361 123.43C260.502 125.558 259.518 127.326 258.409 128.734C257.301 130.11 256.012 131.222 254.543 132.07C252.714 133.126 251.135 133.526 249.804 133.27C248.502 132.966 247.49 132.062 246.77 130.558C246.049 129.022 245.689 126.926 245.689 124.27ZM249.513 122.062C249.513 124.046 249.735 125.614 250.179 126.766C250.622 127.918 251.245 128.63 252.049 128.902C252.881 129.158 253.878 128.95 255.042 128.278C256.068 127.686 256.954 126.838 257.703 125.734C258.479 124.582 259.227 122.966 259.947 120.886C260.668 118.806 261.472 116.022 262.358 112.534L262.15 116.35C261.513 113.774 260.876 111.838 260.238 110.542C259.601 109.246 258.88 108.478 258.077 108.238C257.273 107.998 256.303 108.206 255.167 108.862C253.947 109.566 252.908 110.55 252.049 111.814C251.218 113.03 250.58 114.502 250.137 116.23C249.721 117.942 249.513 119.886 249.513 122.062Z" fill="#EAFFE9"/>
<path fill-rule="evenodd" clip-rule="evenodd" d="M341.344 75.8338C342.291 75.2177 343.637 75.268 345.129 76.1296L438.66 130.13C441.53 131.787 443.856 135.816 443.856 139.13V188.13C443.856 189.72 443.32 190.857 442.445 191.425L449.373 187.425C450.248 186.857 450.784 185.72 450.784 184.13V135.13C450.784 131.816 448.458 127.787 445.588 126.13L352.057 72.1296C350.565 71.268 349.22 71.2177 348.272 71.8338L341.344 75.8338Z" fill="#0F2B46" stroke="#0F2B46" stroke-linejoin="round"/>
<path fill-rule="evenodd" clip-rule="evenodd" d="M442.445 191.426C441.497 192.042 440.152 191.991 438.66 191.13L345.129 137.13C342.259 135.473 339.933 131.444 339.933 128.13V79.1298C339.933 77.5392 340.469 76.4027 341.343 75.834L348.272 71.834C347.397 72.4027 346.861 73.5392 346.861 75.1298V124.13C346.861 127.444 349.187 131.473 352.057 133.13L445.588 187.13C447.08 187.991 448.425 188.042 449.373 187.426L442.445 191.426Z" fill="#0F2B46" stroke="#0F2B46" stroke-linejoin="round"/>
<rect width="120" height="61" rx="6" transform="matrix(0.866025 0.5 0 1 339.933 73.1289)" fill="#EAFFE9"/>
<rect width="120" height="61" rx="6" transform="matrix(0.866025 0.5 0 1 339.933 73.1289)" stroke="#0F2B46"/>
<path d="M364.916 98.1529C364.639 99.8169 364.334 101.289 364.001 102.569C363.669 103.817 363.35 104.881 363.045 105.761L389.483 121.025V124.721L378.052 118.121V123.977C378.052 129.833 376.555 133.929 373.562 136.265C370.431 138.681 365.304 138.297 358.182 135.113L357.184 130.745C362.81 133.417 367.133 134.041 370.154 132.617C373.036 131.209 374.615 127.721 374.893 122.153V116.297L361.881 108.785C361.105 110.449 360.163 111.905 359.055 113.153C357.974 114.385 356.602 115.273 354.939 115.817L352.695 111.929C355.272 110.697 357.309 108.529 358.805 105.425C360.219 102.465 361.189 99.2169 361.715 95.6809L364.916 98.1529ZM396.218 119.633L428.891 138.497C428.642 142.769 427.298 146.089 424.859 148.457C422.559 150.681 419.621 151.737 416.046 151.625L414.051 147.305C416.684 147.417 418.984 146.841 420.951 145.577C423.085 144.217 424.443 142.361 425.025 140.009L396.218 123.377V119.633ZM412.18 136.337V144.161C412.18 149.505 411.238 153.217 409.353 155.297C407.469 157.345 403.866 157.617 398.545 156.113L397.174 151.673C401.802 153.161 404.892 153.073 406.444 151.409C408.162 149.777 409.007 146.745 408.979 142.313V134.489L412.18 136.337Z" fill="#0F2B46"/>
<path fill-rule="evenodd" clip-rule="evenodd" d="M363.231 363.934C362.365 364.497 361.135 364.451 359.771 363.663L258.44 305.16C255.817 303.646 253.69 299.962 253.69 296.933V125.079C253.69 123.625 254.18 122.587 254.98 122.067L262.897 117.496C262.097 118.016 261.607 119.055 261.607 120.509V292.362C261.607 295.392 263.733 299.075 266.357 300.589L367.688 359.093C369.052 359.88 370.282 359.927 371.148 359.363L363.231 363.934Z" fill="#EAFFE9" stroke="#0F2B46" stroke-linejoin="round"/>
<path fill-rule="evenodd" clip-rule="evenodd" d="M254.98 122.116C255.847 121.547 257.077 121.593 258.441 122.389L359.771 181.478C362.395 183.008 364.521 186.728 364.521 189.787V363.362C364.521 364.83 364.031 365.88 363.232 366.405L371.148 361.788C371.948 361.263 372.438 360.214 372.438 358.745V185.171C372.438 182.112 370.311 178.391 367.688 176.862L266.357 117.772C264.993 116.977 263.763 116.93 262.897 117.499L254.98 122.116Z" fill="#EAFFE9" stroke="#0F2B46" stroke-linejoin="round"/>
<path d="M253.69 125.078C253.69 122.049 255.817 120.822 258.44 122.336L359.771 180.839C362.394 182.354 364.521 186.037 364.521 189.066V366.405L253.69 302.417V125.078Z" fill="#EAFFE9" stroke="#0F2B46"/>
<path fill-rule="evenodd" clip-rule="evenodd" d="M291.438 124.984C290.517 125.453 289.942 126.541 289.942 128.116V137.257C289.942 140.286 292.069 143.97 294.692 145.484L324.775 162.853C326.034 163.58 327.179 163.675 328.029 163.242L336.689 158.242C335.839 158.675 334.694 158.58 333.435 157.853L303.353 140.484C300.729 138.97 298.603 135.286 298.603 132.257V123.116C298.603 121.541 299.178 120.453 300.099 119.984L291.438 124.984Z" fill="#0F2B46" stroke="#0F2B46"/>
<path fill-rule="evenodd" clip-rule="evenodd" d="M303.768 117.346C302.08 118.205 301.025 120.2 301.025 123.088C301.025 125.31 301.65 127.725 302.707 130L311.368 125C310.31 122.725 309.686 120.31 309.686 118.088C309.686 115.2 310.74 113.205 312.428 112.346L303.768 117.346Z" fill="#0F2B46" stroke="#0F2B46"/>
<path fill-rule="evenodd" clip-rule="evenodd" d="M302.708 130.001L294.692 125.373C293.433 124.646 292.289 124.551 291.438 124.984L300.099 119.984C300.949 119.551 302.094 119.646 303.353 120.373L311.368 125.001L302.708 130.001Z" fill="#0F2B46" stroke="#0F2B46"/>
<path fill-rule="evenodd" clip-rule="evenodd" d="M328.029 163.241C328.95 162.772 329.525 161.684 329.525 160.109V150.968C329.525 147.939 327.399 144.256 324.775 142.741L316.76 138.114C317.818 137.06 318.442 135.366 318.442 133.143C318.442 127.59 314.544 120.837 309.734 118.06C307.426 116.728 305.327 116.553 303.769 117.346L312.429 112.346C313.987 111.553 316.086 111.728 318.394 113.06C323.204 115.837 327.103 122.59 327.103 128.143C327.103 130.366 326.478 132.06 325.421 133.114L333.435 137.741C336.059 139.256 338.185 142.939 338.185 145.968V155.109C338.185 156.684 337.61 157.772 336.689 158.241L328.029 163.241Z" fill="#0F2B46" stroke="#0F2B46"/>
<path fill-rule="evenodd" clip-rule="evenodd" d="M316.76 138.114C317.817 137.06 318.442 135.367 318.442 133.144C318.442 127.591 314.543 120.838 309.734 118.061C304.924 115.285 301.026 117.536 301.026 123.089C301.026 125.312 301.65 127.726 302.708 130.001L294.692 125.374C292.069 123.859 289.942 125.087 289.942 128.116V137.257C289.942 140.286 292.069 143.97 294.692 145.484L324.775 162.852C327.398 164.367 329.525 163.139 329.525 160.11V150.969C329.525 147.94 327.398 144.256 324.775 142.742L316.76 138.114Z" fill="#EAFFE9"/>
<path d="M316.76 138.114L316.411 137.617L315.905 138.121L316.76 138.614V138.114ZM302.708 130.001V130.501L303.562 130.995L303.057 129.907L302.708 130.001ZM318.009 132.894C318.009 135.007 317.416 136.616 316.411 137.617L317.109 138.612C318.219 137.505 318.875 135.727 318.875 133.394L318.009 132.894ZM309.734 118.561C314.304 121.2 318.009 127.617 318.009 132.894L318.875 133.394C318.875 127.565 314.782 120.476 309.734 117.561V118.561ZM301.459 123.339C301.459 118.062 305.164 115.923 309.734 118.561V117.561C304.685 114.647 300.593 117.009 300.593 122.839L301.459 123.339ZM303.057 129.907C302.052 127.745 301.459 125.452 301.459 123.339L300.593 122.839C300.593 125.171 301.248 127.707 302.358 130.096L303.057 129.907ZM294.692 125.874L302.708 130.501V129.501L294.692 124.874V125.874ZM290.375 128.366C290.375 125.613 292.308 124.497 294.692 125.874V124.874C291.83 123.221 289.509 124.561 289.509 127.866L290.375 128.366ZM290.375 137.507V128.366L289.509 127.866V137.007L290.375 137.507ZM294.692 144.984C292.308 143.608 290.375 140.26 290.375 137.507L289.509 137.007C289.509 140.312 291.83 144.332 294.692 145.984V144.984ZM324.775 162.352L294.692 144.984V145.984L324.775 163.352V162.352ZM329.092 159.86C329.092 162.613 327.159 163.729 324.775 162.352V163.352C327.637 165.005 329.958 163.665 329.958 160.36L329.092 159.86ZM329.092 150.719V159.86L329.958 160.36V151.219L329.092 150.719ZM324.775 143.242C327.159 144.618 329.092 147.966 329.092 150.719L329.958 151.219C329.958 147.914 327.637 143.894 324.775 142.242V143.242ZM316.76 138.614L324.775 143.242V142.242L316.76 137.614V138.614Z" fill="#0F2B46"/>
<path fill-rule="evenodd" clip-rule="evenodd" d="M347.439 217.212C347.662 216.674 347.757 216.127 347.754 215.578L351.621 213.346C351.624 213.894 351.529 214.441 351.307 214.979L347.439 217.212Z" fill="#0F2B46"/>
<path fill-rule="evenodd" clip-rule="evenodd" d="M347.972 225.768C347.253 226.197 346.472 226.572 345.651 226.904C342.8 228.058 339.244 228.783 335.609 229.396L339.476 227.164C343.111 226.55 346.667 225.825 349.518 224.671C350.339 224.339 351.12 223.964 351.839 223.535L347.972 225.768Z" fill="#0F2B46"/>
<path fill-rule="evenodd" clip-rule="evenodd" d="M335.609 229.397C339.435 234.448 343.208 239.544 346.203 244.214C348.07 247.126 349.727 250.013 350.927 252.733C352.129 255.457 352.962 258.22 352.946 260.686C352.93 263.151 352.067 264.925 350.843 266.236C350.206 266.917 349.446 267.501 348.598 268.007L352.465 265.774C353.313 265.268 354.073 264.685 354.71 264.003C355.934 262.692 356.797 260.918 356.813 258.454C356.829 255.987 355.996 253.224 354.794 250.501C353.594 247.78 351.937 244.893 350.07 241.982C347.076 237.312 343.302 232.215 339.476 227.164L335.609 229.397Z" fill="#EAFFE9" stroke="#0F2B46" stroke-linecap="round" stroke-linejoin="round"/>
<path fill-rule="evenodd" clip-rule="evenodd" d="M348.599 268.006C347.815 268.473 346.957 268.874 346.05 269.225C343.101 270.366 339.416 271.056 335.662 271.636L339.529 269.404C343.283 268.823 346.968 268.133 349.917 266.993C350.824 266.642 351.683 266.241 352.466 265.773L348.599 268.006Z" fill="#0F2B46"/>
<path fill-rule="evenodd" clip-rule="evenodd" d="M335.662 271.635C339.416 276.551 343.101 281.496 346.05 286.041C347.939 288.954 349.619 291.843 350.843 294.566C352.068 297.291 352.93 300.062 352.947 302.544C352.963 305.029 352.129 306.83 350.928 308.166C350.256 308.914 349.441 309.548 348.525 310.094L352.392 307.861C353.308 307.315 354.123 306.681 354.795 305.933C355.997 304.598 356.83 302.797 356.814 300.312C356.797 297.829 355.935 295.058 354.71 292.334C353.486 289.61 351.806 286.722 349.917 283.808C346.968 279.263 343.283 274.318 339.529 269.402L335.662 271.635Z" fill="#EAFFE9" stroke="#0F2B46" stroke-linecap="round" stroke-linejoin="round"/>
<path fill-rule="evenodd" clip-rule="evenodd" d="M348.524 310.094C347.805 310.523 347.024 310.898 346.203 311.23C343.208 312.443 339.435 313.181 335.609 313.815L339.476 311.582C343.302 310.948 347.075 310.21 350.07 308.998C350.891 308.665 351.672 308.29 352.391 307.861L348.524 310.094Z" fill="#0F2B46"/>
<path fill-rule="evenodd" clip-rule="evenodd" d="M335.609 313.817C339.244 318.627 342.8 323.458 345.65 327.902C347.517 330.813 349.174 333.7 350.374 336.419C351.576 339.143 352.409 341.906 352.393 344.371L356.26 342.139C356.276 339.673 355.443 336.91 354.241 334.187C353.042 331.467 351.384 328.58 349.517 325.67C346.667 321.225 343.111 316.394 339.476 311.584L335.609 313.817Z" fill="#EAFFE9" stroke="#0F2B46" stroke-linecap="round" stroke-linejoin="round"/>
<path fill-rule="evenodd" clip-rule="evenodd" d="M352.393 344.371L347.753 341.651C347.76 340.631 347.417 339.212 346.543 337.232C346.505 337.146 346.467 337.058 346.427 336.971L316.181 319.508L320.048 317.275L350.294 334.738C350.334 334.826 350.373 334.913 350.411 334.999C351.284 336.979 351.627 338.398 351.62 339.419L356.26 342.139L352.393 344.371Z" fill="#EAFFE9"/>
<path fill-rule="evenodd" clip-rule="evenodd" d="M316.182 319.508C316.142 319.55 316.103 319.592 316.065 319.634C315.191 320.606 314.849 321.629 314.856 322.658L318.723 320.425C318.716 319.397 319.058 318.373 319.932 317.402C319.97 317.359 320.009 317.317 320.049 317.275L316.182 319.508Z" fill="#0F2B46"/>
<path fill-rule="evenodd" clip-rule="evenodd" d="M314.855 322.657L310.215 320.019C310.198 317.534 311.032 315.734 312.233 314.398C312.905 313.651 313.721 313.017 314.636 312.471L318.503 310.238C317.588 310.784 316.773 311.418 316.101 312.165C314.899 313.501 314.065 315.301 314.082 317.786L318.722 320.424L314.855 322.657Z" fill="#0F2B46"/>
<path fill-rule="evenodd" clip-rule="evenodd" d="M314.636 312.47C315.355 312.042 316.136 311.667 316.958 311.335C319.808 310.182 323.364 309.457 326.999 308.844L330.866 306.611C327.231 307.224 323.675 307.949 320.825 309.102C320.003 309.434 319.223 309.809 318.503 310.238L314.636 312.47Z" fill="#EAFFE9" stroke="#0F2B46" stroke-linecap="round" stroke-linejoin="round"/>
<path fill-rule="evenodd" clip-rule="evenodd" d="M326.999 308.844C323.173 303.792 319.399 298.697 316.405 294.027C314.538 291.115 312.88 288.228 311.68 285.508C310.479 282.785 309.646 280.021 309.662 277.555C309.678 275.091 310.54 273.316 311.765 272.006C312.402 271.324 313.161 270.741 314.01 270.235L317.877 268.002C317.029 268.508 316.269 269.091 315.632 269.773C314.408 271.083 313.545 272.858 313.529 275.322C313.513 277.788 314.346 280.552 315.548 283.275C316.748 285.996 318.405 288.883 320.272 291.794C323.266 296.464 327.04 301.56 330.866 306.611L326.999 308.844Z" fill="#0F2B46"/>
<path fill-rule="evenodd" clip-rule="evenodd" d="M314.01 270.234C314.793 269.767 315.652 269.366 316.559 269.015C319.507 267.875 323.192 267.185 326.946 266.604L330.813 264.371C327.06 264.952 323.374 265.642 320.426 266.783C319.519 267.134 318.66 267.535 317.877 268.002L314.01 270.234Z" fill="#0F2B46"/>
<path fill-rule="evenodd" clip-rule="evenodd" d="M326.946 266.605C323.193 261.69 319.507 256.745 316.559 252.2C314.669 249.287 312.989 246.398 311.765 243.675C310.54 240.95 309.678 238.179 309.662 235.696C309.646 233.212 310.479 231.411 311.68 230.074C312.352 229.327 313.168 228.693 314.083 228.147L317.95 225.914C317.035 226.46 316.22 227.094 315.548 227.842C314.346 229.178 313.513 230.979 313.529 233.464C313.545 235.947 314.408 238.717 315.632 241.442C316.856 244.166 318.536 247.054 320.426 249.967C323.374 254.513 327.06 259.457 330.813 264.373L326.946 266.605Z" fill="#0F2B46"/>
<path fill-rule="evenodd" clip-rule="evenodd" d="M314.083 228.147C314.803 227.718 315.584 227.343 316.405 227.011C319.4 225.798 323.173 225.06 326.999 224.426L330.866 222.193C327.04 222.827 323.267 223.566 320.272 224.778C319.451 225.11 318.67 225.485 317.951 225.914L314.083 228.147Z" fill="#EAFFE9" stroke="#0F2B46" stroke-linecap="round" stroke-linejoin="round"/>
<path fill-rule="evenodd" clip-rule="evenodd" d="M326.999 224.425C323.364 219.614 319.808 214.783 316.957 210.337C315.09 207.426 313.433 204.539 312.233 201.818C311.032 199.095 310.198 196.332 310.215 193.865L314.082 191.633C314.065 194.099 314.899 196.862 316.1 199.586C317.3 202.306 318.957 205.193 320.824 208.105C323.675 212.55 327.231 217.381 330.866 222.192L326.999 224.425Z" fill="#0F2B46"/>
<path fill-rule="evenodd" clip-rule="evenodd" d="M310.214 193.865L314.855 196.585C314.851 197.129 314.947 197.787 315.169 198.581L347.439 217.213L351.306 214.98L319.036 196.349C318.814 195.554 318.718 194.897 318.722 194.353L314.081 191.633L310.214 193.865Z" fill="#EAFFE9" stroke="#0F2B46" stroke-linecap="round" stroke-linejoin="round"/>
<path fill-rule="evenodd" clip-rule="evenodd" d="M347.752 215.58L352.392 218.219C352.408 220.704 351.575 222.505 350.374 223.841C349.702 224.588 348.886 225.222 347.971 225.768L351.838 223.536C352.753 222.99 353.569 222.355 354.241 221.608C355.442 220.272 356.276 218.471 356.259 215.986L351.619 213.348L347.752 215.58Z" fill="#EAFFE9" stroke="#0F2B46" stroke-linecap="round" stroke-linejoin="round"/>
<path fill-rule="evenodd" clip-rule="evenodd" d="M347.439 217.211C347.661 216.673 347.757 216.126 347.753 215.578L352.393 218.216C352.41 220.701 351.576 222.502 350.375 223.838C349.175 225.173 347.518 226.146 345.651 226.902C342.8 228.056 339.244 228.781 335.609 229.394C339.435 234.446 343.208 239.542 346.203 244.212C348.07 247.124 349.727 250.011 350.927 252.731C352.129 255.454 352.962 258.218 352.946 260.684C352.93 263.148 352.067 264.923 350.843 266.234C349.619 267.544 347.939 268.492 346.049 269.224C343.1 270.364 339.415 271.054 335.661 271.635C339.415 276.55 343.1 281.495 346.049 286.04C347.939 288.954 349.619 291.842 350.843 294.566C352.067 297.291 352.93 300.061 352.946 302.544C352.962 305.029 352.129 306.83 350.927 308.166C349.727 309.5 348.07 310.474 346.203 311.23C343.208 312.442 339.435 313.18 335.609 313.814C339.244 318.625 342.8 323.455 345.65 327.899C347.517 330.811 349.175 333.697 350.375 336.417C351.576 339.14 352.41 341.903 352.393 344.369L347.753 341.649C347.76 340.629 347.418 339.21 346.544 337.229C346.506 337.143 346.467 337.056 346.427 336.969L316.181 319.506C316.141 319.548 316.102 319.59 316.064 319.632C315.19 320.603 314.848 321.627 314.855 322.655L310.214 320.017C310.198 317.532 311.032 315.732 312.233 314.396C313.433 313.062 315.09 312.089 316.957 311.333C319.808 310.18 323.364 309.456 326.999 308.843C323.173 303.792 319.399 298.696 316.405 294.026C314.538 291.114 312.88 288.227 311.68 285.507C310.479 282.783 309.646 280.02 309.662 277.554C309.678 275.09 310.54 273.315 311.765 272.004C312.989 270.694 314.669 269.745 316.559 269.014C319.507 267.873 323.193 267.184 326.946 266.603C323.193 261.688 319.507 256.743 316.559 252.197C314.669 249.284 312.989 246.396 311.765 243.672C310.54 240.947 309.678 238.177 309.662 235.694C309.646 233.209 310.479 231.408 311.68 230.072C312.88 228.737 314.538 227.764 316.405 227.008C319.399 225.796 323.173 225.057 326.999 224.423C323.364 219.612 319.808 214.781 316.957 210.336C315.09 207.424 313.433 204.537 312.233 201.817C311.032 199.094 310.198 196.33 310.214 193.864L314.855 196.584C314.851 197.128 314.947 197.785 315.169 198.581L347.439 217.211Z" fill="#0F2B46"/>
<path d="M319.421 229.291L343.186 243.012" stroke="#EAFFE9" stroke-linecap="round" stroke-linejoin="round"/>
<path d="M319.421 253.074L343.186 266.795" stroke="#EAFFE9" stroke-linecap="round" stroke-linejoin="round"/>
<path d="M312.043 236.924L350.563 259.163" stroke="#EAFFE9" stroke-linecap="round" stroke-linejoin="round"/>
<path d="M319.421 271.557L343.186 285.278" stroke="#EAFFE9" stroke-linecap="round" stroke-linejoin="round"/>
<path d="M319.421 295.34L343.186 309.061" stroke="#EAFFE9" stroke-linecap="round" stroke-linejoin="round"/>
<path d="M319.421 313.967L343.186 327.688" stroke="#EAFFE9" stroke-linecap="round" stroke-linejoin="round"/>
<path d="M319.421 210.234L343.186 223.955" stroke="#EAFFE9" stroke-linecap="round" stroke-linejoin="round"/>
<path d="M312.043 279.189L350.563 301.429" stroke="#EAFFE9" stroke-linecap="round" stroke-linejoin="round"/>
<path fill-rule="evenodd" clip-rule="evenodd" d="M346.544 218.605C347.417 217.633 347.76 216.609 347.753 215.58L352.393 218.218C352.41 220.703 351.576 222.504 350.375 223.84C349.175 225.175 347.518 226.148 345.651 226.904C341.955 228.4 337.073 229.175 332.37 229.921L332.275 229.936C327.461 230.7 322.838 231.44 319.411 232.827C317.704 233.518 316.387 234.336 315.512 235.309C314.638 236.281 314.296 237.305 314.302 238.334C314.309 239.365 314.669 240.798 315.565 242.793C316.462 244.789 317.803 247.136 319.533 249.804C323.007 255.158 327.676 261.239 332.536 267.562L332.631 267.686C337.38 273.864 342.307 280.274 346.049 286.042C347.939 288.956 349.619 291.844 350.843 294.568C352.067 297.292 352.93 300.063 352.946 302.546C352.962 305.031 352.129 306.832 350.927 308.168C349.727 309.502 348.07 310.476 346.203 311.232C342.507 312.728 337.623 313.503 332.92 314.249L332.827 314.263C328.013 315.027 323.391 315.767 319.964 317.153C318.257 317.844 316.939 318.661 316.064 319.634C315.19 320.605 314.848 321.629 314.855 322.657L310.214 320.019C310.198 317.534 311.032 315.734 312.233 314.398C313.433 313.064 315.09 312.091 316.957 311.335C320.652 309.84 325.534 309.066 330.235 308.32L330.333 308.305C335.147 307.541 339.77 306.801 343.197 305.414C344.904 304.723 346.221 303.906 347.096 302.932C347.97 301.96 348.312 300.936 348.305 299.907C348.299 298.876 347.939 297.444 347.043 295.449C346.145 293.453 344.805 291.105 343.075 288.438C339.601 283.083 334.932 277.002 330.072 270.68L329.977 270.556C325.228 264.378 320.3 257.967 316.559 252.199C314.669 249.286 312.989 246.398 311.765 243.674C310.54 240.949 309.678 238.179 309.662 235.696C309.646 233.211 310.479 231.41 311.68 230.074C312.88 228.739 314.538 227.766 316.405 227.01C320.1 225.514 324.983 224.739 329.685 223.993L329.78 223.978C334.594 223.214 339.217 222.474 342.644 221.087C344.351 220.396 345.668 219.578 346.544 218.605Z" fill="#EAFFE9" stroke="#0F2B46" stroke-miterlimit="10" stroke-linecap="round" stroke-linejoin="round"/>
<path fill-rule="evenodd" clip-rule="evenodd" d="M312.233 201.819C311.032 199.096 310.198 196.332 310.214 193.866L314.855 196.586C314.848 197.607 315.19 199.027 316.064 201.007C316.939 202.991 318.257 205.33 319.964 207.992C323.391 213.336 328.013 219.414 332.827 225.737L332.923 225.862C337.625 232.038 342.507 238.451 346.203 244.214C348.07 247.126 349.727 250.013 350.927 252.733C352.129 255.456 352.962 258.22 352.946 260.686C352.93 263.15 352.067 264.925 350.843 266.235C349.619 267.546 347.939 268.494 346.049 269.225C342.307 270.673 337.38 271.394 332.631 272.089L332.536 272.102C327.676 272.813 323.007 273.503 319.533 274.846C317.803 275.516 316.462 276.316 315.565 277.276C314.669 278.235 314.309 279.252 314.302 280.276C314.296 281.297 314.638 282.716 315.512 284.697C316.387 286.681 317.704 289.02 319.411 291.682C322.838 297.026 327.461 303.103 332.275 309.426L332.372 309.554C337.074 315.729 341.955 322.14 345.65 327.901C347.517 330.813 349.175 333.699 350.375 336.419C351.576 339.142 352.41 341.905 352.393 344.371L347.753 341.651C347.76 340.63 347.418 339.212 346.544 337.231C345.668 335.248 344.351 332.909 342.644 330.248C339.217 324.904 334.595 318.827 329.781 312.504L329.687 312.382C324.984 306.205 320.101 299.792 316.405 294.028C314.538 291.116 312.88 288.229 311.68 285.509C310.479 282.785 309.646 280.022 309.662 277.556C309.678 275.092 310.54 273.317 311.765 272.006C312.989 270.696 314.669 269.747 316.559 269.016C320.3 267.569 325.228 266.848 329.977 266.153L330.072 266.139C334.932 265.428 339.601 264.739 343.075 263.395C344.805 262.726 346.145 261.926 347.043 260.966C347.939 260.007 348.299 258.989 348.305 257.966C348.312 256.945 347.97 255.525 347.096 253.544C346.221 251.56 344.904 249.222 343.197 246.56C339.77 241.216 335.147 235.138 330.333 228.815L330.238 228.69C325.535 222.514 320.653 216.101 316.957 210.338C315.09 207.426 313.433 204.539 312.233 201.819Z" fill="#EAFFE9" stroke="#0F2B46" stroke-miterlimit="10" stroke-linecap="round" stroke-linejoin="round"/>
<path d="M259.7 174.902L303.626 200.263" stroke="#0F2B46" stroke-linejoin="round"/>
<path d="M259.7 187.838L303.626 213.198" stroke="#0F2B46" stroke-linejoin="round"/>
<path d="M259.7 200.773L303.626 226.134" stroke="#0F2B46" stroke-linejoin="round"/>
<path d="M259.7 213.711L303.626 239.071" stroke="#0F2B46" stroke-linejoin="round"/>
<path d="M259.7 226.646L303.626 252.007" stroke="#0F2B46" stroke-linejoin="round"/>
<path fill-rule="evenodd" clip-rule="evenodd" d="M299.429 383.91C298.562 384.473 297.333 384.427 295.968 383.639L194.638 325.136C192.014 323.621 189.888 319.938 189.888 316.909V207.958C189.888 206.504 190.378 205.465 191.177 204.946L199.094 200.375C198.294 200.895 197.804 201.934 197.804 203.388V312.338C197.804 315.368 199.931 319.051 202.554 320.565L303.885 379.069C305.249 379.856 306.479 379.902 307.345 379.339L299.429 383.91Z" fill="#EAFFE9" stroke="#0F2B46" stroke-linejoin="round"/>
<path fill-rule="evenodd" clip-rule="evenodd" d="M191.178 205.011C192.044 204.441 193.274 204.487 194.638 205.286L295.969 264.575C298.592 266.11 300.719 269.843 300.719 272.913V383.327C300.719 384.801 300.229 385.854 299.429 386.381L307.346 381.749C308.145 381.222 308.635 380.169 308.635 378.695V268.281C308.635 265.211 306.509 261.478 303.885 259.943L202.554 200.654C201.19 199.855 199.961 199.809 199.094 200.379L191.178 205.011Z" fill="#EAFFE9" stroke="#0F2B46" stroke-linejoin="round"/>
<path d="M189.888 207.957C189.888 204.928 192.014 203.7 194.638 205.215L295.968 263.718C298.592 265.233 300.718 268.916 300.718 271.945V386.381L189.888 322.393V207.957Z" fill="#EAFFE9" stroke="#0F2B46"/>
<path d="M245.303 270.871L292.501 298.121" stroke="#0F2B46" stroke-linejoin="round"/>
<path d="M245.303 283.213L292.501 310.463" stroke="#0F2B46" stroke-linejoin="round"/>
<path d="M245.303 295.557L292.501 322.807" stroke="#0F2B46" stroke-linejoin="round"/>
<path d="M245.303 307.898L292.501 335.148" stroke="#0F2B46" stroke-linejoin="round"/>
<path d="M245.303 320.24L292.501 347.49" stroke="#0F2B46" stroke-linejoin="round"/>
<path d="M245.303 332.584L292.501 359.834" stroke="#0F2B46" stroke-linejoin="round"/>
<path fill-rule="evenodd" clip-rule="evenodd" d="M224.199 263.855V315.283L235.675 321.908L241.148 318.749L229.672 312.123V260.695L224.199 263.855Z" fill="#EAFFE9" stroke="#0F2B46" stroke-linejoin="round"/>
<path fill-rule="evenodd" clip-rule="evenodd" d="M235.675 321.908V270.481L224.199 263.855L229.672 260.695L241.148 267.321V318.749L235.675 321.908Z" fill="#0F2B46" stroke="#0F2B46" stroke-linejoin="round"/>
<path fill-rule="evenodd" clip-rule="evenodd" d="M219.281 312.444L207.805 305.818V277.738L213.278 274.578V302.658L224.754 309.284L219.281 312.444Z" fill="#EAFFE9" stroke="#0F2B46" stroke-linejoin="round"/>
<path fill-rule="evenodd" clip-rule="evenodd" d="M207.805 277.738L219.281 284.364V312.444L224.754 309.284V281.204L213.278 274.578L207.805 277.738Z" fill="#0F2B46" stroke="#0F2B46" stroke-linejoin="round"/>
<path fill-rule="evenodd" clip-rule="evenodd" d="M203.16 303.135L191.684 296.509V282.627L197.157 279.467V293.349L208.632 299.975L203.16 303.135Z" fill="#EAFFE9" stroke="#0F2B46" stroke-linejoin="round"/>
<path fill-rule="evenodd" clip-rule="evenodd" d="M191.684 282.629L203.16 289.254V303.137L208.632 299.977V286.094L197.157 279.469L191.684 282.629Z" fill="#0F2B46" stroke="#0F2B46" stroke-linejoin="round"/>
<path fill-rule="evenodd" clip-rule="evenodd" d="M235.675 270.48L224.199 263.855V315.282L235.675 321.908V270.48ZM207.805 277.737L219.281 284.362V312.442L207.805 305.817V277.737ZM191.684 282.627L203.16 289.253V303.135L191.684 296.509V282.627Z" fill="#EAFFE9"/>
<path d="M224.199 263.855V263.355C223.96 263.217 223.766 263.328 223.766 263.605L224.199 263.855ZM235.675 270.48L236.108 270.73C236.108 270.454 235.914 270.118 235.675 269.98V270.48ZM224.199 315.282L223.766 315.032C223.766 315.308 223.96 315.644 224.199 315.782V315.282ZM235.675 321.908V322.408C235.914 322.546 236.108 322.434 236.108 322.158L235.675 321.908ZM219.281 284.362L219.714 284.612C219.714 284.336 219.52 284 219.281 283.862V284.362ZM207.805 277.737V277.237C207.566 277.098 207.372 277.21 207.372 277.487L207.805 277.737ZM219.281 312.442V312.942C219.52 313.08 219.714 312.969 219.714 312.692L219.281 312.442ZM207.805 305.817L207.372 305.567C207.372 305.843 207.566 306.179 207.805 306.317V305.817ZM203.16 289.253L203.593 289.503C203.593 289.227 203.399 288.891 203.16 288.753V289.253ZM191.684 282.627V282.127C191.444 281.989 191.251 282.101 191.251 282.377L191.684 282.627ZM203.16 303.135V303.635C203.399 303.773 203.593 303.661 203.593 303.385L203.16 303.135ZM191.684 296.509L191.251 296.259C191.251 296.536 191.444 296.871 191.684 297.009V296.509ZM224.199 264.355L235.675 270.98V269.98L224.199 263.355V264.355ZM224.632 315.532V264.105L223.766 263.605V315.032L224.632 315.532ZM235.675 321.408L224.199 314.782V315.782L235.675 322.408V321.408ZM235.242 270.23V321.658L236.108 322.158V270.73L235.242 270.23ZM219.281 283.862L207.805 277.237V278.237L219.281 284.862V283.862ZM219.714 312.692V284.612L218.848 284.112V312.192L219.714 312.692ZM207.805 306.317L219.281 312.942V311.942L207.805 305.317V306.317ZM207.372 277.487V305.567L208.238 306.067V277.987L207.372 277.487ZM203.16 288.753L191.684 282.127V283.127L203.16 289.753V288.753ZM203.593 303.385V289.503L202.727 289.003V302.885L203.593 303.385ZM191.684 297.009L203.16 303.635V302.635L191.684 296.009V297.009ZM191.251 282.377V296.259L192.117 296.759V282.877L191.251 282.377Z" fill="#0F2B46"/>
<path d="M195.797 220.358L196.252 221.246L196.551 221.112C197.018 220.963 197.664 221.03 198.455 221.487C199.399 222.032 200.282 222.987 200.93 224.11C201.578 225.232 201.964 226.474 201.964 227.565C201.964 228.658 201.584 229.293 201.113 229.565L201.568 230.454L204.459 229.152L204.482 229.141L204.504 229.129C205.393 228.615 205.855 227.566 205.855 226.262C205.855 224.955 205.399 223.542 204.687 222.308C203.974 221.073 202.978 219.972 201.846 219.319C200.726 218.672 199.597 218.544 198.711 219.042L196.196 220.175C196.058 220.223 195.925 220.284 195.797 220.358Z" fill="#0F2B46" stroke="#0F2B46"/>
<path d="M198.456 230.168C199.585 230.82 200.724 230.945 201.614 230.432C202.503 229.918 202.965 228.869 202.965 227.565C202.965 226.258 202.509 224.844 201.797 223.61C201.084 222.376 200.088 221.275 198.956 220.621C197.827 219.97 196.687 219.845 195.798 220.358C194.908 220.872 194.447 221.921 194.447 223.225C194.447 224.532 194.902 225.945 195.615 227.179C196.327 228.414 197.324 229.515 198.456 230.168Z" fill="#EAFFE9" stroke="#0F2B46"/>
<path d="M205.584 225.863L206.039 226.752L206.339 226.617C206.805 226.469 207.451 226.536 208.242 226.993C209.186 227.538 210.069 228.493 210.717 229.616C211.365 230.738 211.751 231.98 211.751 233.07C211.751 234.164 211.371 234.799 210.9 235.071L211.355 235.96L214.246 234.658L214.269 234.647L214.291 234.635C215.18 234.121 215.642 233.072 215.642 231.768C215.642 230.461 215.186 229.047 214.474 227.813C213.761 226.579 212.765 225.478 211.633 224.825C210.514 224.178 209.384 224.05 208.498 224.548L205.983 225.681C205.845 225.729 205.712 225.789 205.584 225.863Z" fill="#0F2B46" stroke="#0F2B46"/>
<path d="M208.243 235.674C209.372 236.326 210.511 236.451 211.401 235.938C212.29 235.424 212.752 234.375 212.752 233.071C212.752 231.764 212.296 230.35 211.584 229.116C210.871 227.882 209.875 226.781 208.743 226.127C207.614 225.475 206.474 225.35 205.585 225.864C204.695 226.377 204.234 227.427 204.234 228.73C204.234 230.037 204.689 231.451 205.402 232.685C206.114 233.919 207.111 235.021 208.243 235.674Z" fill="#EAFFE9" stroke="#0F2B46"/>
<path d="M215.983 231.979L216.438 232.867L216.738 232.733C217.204 232.584 217.85 232.651 218.641 233.108C219.585 233.653 220.468 234.608 221.116 235.731C221.764 236.853 222.15 238.095 222.15 239.186C222.15 240.279 221.77 240.914 221.299 241.186L221.754 242.075L224.645 240.773L224.668 240.763L224.69 240.75C225.579 240.236 226.041 239.187 226.041 237.883C226.041 236.576 225.585 235.163 224.873 233.929C224.16 232.695 223.164 231.593 222.032 230.94C220.912 230.294 219.783 230.165 218.897 230.663L216.382 231.796C216.244 231.844 216.111 231.905 215.983 231.979Z" fill="#0F2B46" stroke="#0F2B46"/>
<path d="M218.64 241.789C219.769 242.441 220.909 242.566 221.798 242.053C222.688 241.539 223.149 240.49 223.149 239.186C223.149 237.879 222.694 236.465 221.981 235.231C221.269 233.997 220.272 232.896 219.14 232.242C218.011 231.591 216.872 231.466 215.982 231.979C215.093 232.493 214.631 233.542 214.631 234.846C214.631 236.153 215.087 237.566 215.799 238.801C216.512 240.035 217.508 241.136 218.64 241.789Z" fill="#EAFFE9" stroke="#0F2B46"/>
<path fill-rule="evenodd" clip-rule="evenodd" d="M131.984 271.646L148.894 261.948L152.866 259.67L135.956 269.368L131.984 271.646Z" fill="#EAFFE9" stroke="#0F2B46" stroke-linejoin="round"/>
<path fill-rule="evenodd" clip-rule="evenodd" d="M148.874 262.173C149.437 261.848 150.201 261.924 150.997 262.383L239.836 313.633C241.494 314.59 242.838 316.917 242.838 318.83V426.22C242.838 427.139 242.529 427.795 242.023 428.123L246.018 425.818C246.523 425.49 246.833 424.834 246.833 423.916V316.525C246.833 314.612 245.489 312.285 243.831 311.329L154.992 260.079C154.196 259.619 153.432 259.544 152.869 259.869L148.874 262.173Z" fill="#EAFFE9" stroke="#0F2B46" stroke-linejoin="round"/>
<path d="M148.925 262.092C149.487 261.768 150.25 261.843 151.045 262.302L239.759 313.522C241.415 314.478 242.758 316.803 242.758 318.715V425.89C242.758 427.802 241.415 428.577 239.759 427.621L134.061 366.596C132.405 365.64 131.062 363.315 131.062 361.403V273.827C131.062 272.909 131.379 272.21 131.941 271.886L148.925 262.092Z" fill="#EAFFE9" stroke="#0F2B46"/>
<path fill-rule="evenodd" clip-rule="evenodd" d="M127.909 273.828L144.819 264.129L148.791 261.852L131.881 271.55L127.909 273.828Z" fill="#EAFFE9" stroke="#0F2B46" stroke-linejoin="round"/>
<path fill-rule="evenodd" clip-rule="evenodd" d="M144.799 264.355C145.362 264.03 146.126 264.106 146.922 264.565L235.761 315.815C237.419 316.771 238.763 319.098 238.763 321.012V428.402C238.763 429.32 238.453 429.976 237.948 430.305L241.943 428C242.448 427.672 242.758 427.016 242.758 426.097V318.707C242.758 316.794 241.413 314.467 239.756 313.511L150.917 262.26C150.12 261.801 149.357 261.725 148.794 262.05L144.799 264.355Z" fill="#EAFFE9" stroke="#0F2B46" stroke-linejoin="round"/>
<path d="M144.85 264.274C145.412 263.949 146.175 264.025 146.97 264.484L235.684 315.703C237.34 316.659 238.682 318.985 238.682 320.897V428.072C238.682 429.984 237.34 430.759 235.684 429.803L129.986 368.778C128.33 367.822 126.987 365.497 126.987 363.584V276.009C126.987 275.09 127.303 274.392 127.866 274.067L144.85 264.274Z" fill="#EAFFE9" stroke="#0F2B46"/>
<path fill-rule="evenodd" clip-rule="evenodd" d="M197.272 346.424C196.961 346.583 196.766 346.951 196.766 347.484V360.704L203.8 356.643V343.423C203.8 342.89 203.995 342.522 204.306 342.363L197.272 346.424Z" fill="#EAFFE9" stroke="#0F2B46" stroke-linejoin="round"/>
<path fill-rule="evenodd" clip-rule="evenodd" d="M184.216 353.961C183.905 354.12 183.71 354.488 183.71 355.021L183.71 365.704C183.71 366.73 184.43 367.976 185.317 368.489L196.766 375.098V388.318C196.766 389.344 197.486 390.59 198.373 391.103L207.625 396.444C208.051 396.69 208.439 396.722 208.726 396.576L215.76 392.515C215.473 392.661 215.085 392.629 214.659 392.383L205.407 387.042C204.52 386.529 203.8 385.282 203.8 384.257V371.037L192.351 364.428C191.464 363.915 190.744 362.668 190.744 361.643V350.96C190.744 350.427 190.939 350.059 191.25 349.9L184.216 353.961Z" fill="#EAFFE9" stroke="#0F2B46" stroke-linejoin="round"/>
<path fill-rule="evenodd" clip-rule="evenodd" d="M208.726 396.577C209.038 396.419 209.232 396.05 209.232 395.517V382.297L216.266 378.236V391.456C216.266 391.989 216.072 392.358 215.76 392.516L208.726 396.577Z" fill="#EAFFE9" stroke="#0F2B46" stroke-linejoin="round"/>
<path fill-rule="evenodd" clip-rule="evenodd" d="M196.765 360.705L185.317 354.095C184.891 353.849 184.503 353.817 184.216 353.963L191.25 349.902C191.538 349.756 191.925 349.788 192.351 350.034L203.799 356.644L196.765 360.705Z" fill="#EAFFE9" stroke="#0F2B46" stroke-linejoin="round"/>
<path fill-rule="evenodd" clip-rule="evenodd" d="M209.232 382.297L220.681 388.908C221.107 389.154 221.495 389.186 221.783 389.04L228.817 384.978C228.529 385.125 228.141 385.093 227.715 384.847L216.266 378.236L209.232 382.297Z" fill="#EAFFE9" stroke="#0F2B46" stroke-linejoin="round"/>
<path fill-rule="evenodd" clip-rule="evenodd" d="M221.782 389.039C222.094 388.881 222.288 388.513 222.288 387.98V377.297C222.288 376.271 221.569 375.025 220.681 374.512L209.232 367.902V354.682C209.232 353.657 208.512 352.41 207.624 351.898L198.372 346.556C197.946 346.31 197.559 346.278 197.271 346.424L204.305 342.363C204.593 342.217 204.98 342.249 205.406 342.495L214.658 347.836C215.546 348.349 216.266 349.596 216.266 350.621V363.841L227.715 370.451C228.603 370.964 229.322 372.21 229.322 373.235V383.918C229.322 384.452 229.128 384.82 228.816 384.978L221.782 389.039Z" fill="#EAFFE9" stroke="#0F2B46" stroke-linejoin="round"/>
<path fill-rule="evenodd" clip-rule="evenodd" d="M198.745 346.771C197.652 346.14 196.766 346.651 196.766 347.913V360.705L185.689 354.31C184.596 353.678 183.709 354.19 183.709 355.452L183.709 365.277C183.709 366.539 184.596 368.074 185.689 368.705L196.766 375.1V387.891C196.766 389.153 197.652 390.687 198.745 391.318L207.254 396.231C208.347 396.862 209.233 396.35 209.233 395.088V382.298L220.31 388.694C221.403 389.325 222.289 388.813 222.289 387.551V377.726C222.289 376.464 221.403 374.929 220.31 374.298L209.233 367.903V355.111C209.233 353.849 208.347 352.314 207.254 351.683L198.745 346.771Z" fill="#0F2B46"/>
<path d="M196.766 360.705L196.766 361.205C196.881 361.271 196.991 361.282 197.072 361.235C197.153 361.188 197.199 361.088 197.199 360.955L196.766 360.705ZM185.689 354.31L185.689 353.81L185.689 353.81V354.31ZM183.709 355.452L183.276 355.202L183.709 355.452ZM183.709 365.277L183.276 365.027L183.709 365.277ZM185.689 368.705L185.689 369.205L185.689 368.705ZM196.766 375.1L197.199 375.35C197.199 375.218 197.153 375.064 197.072 374.924C196.991 374.783 196.881 374.667 196.766 374.6L196.766 375.1ZM198.745 391.318V390.818V391.318ZM207.254 396.231V396.731V396.231ZM209.233 382.298V381.798C208.993 381.66 208.8 381.772 208.8 382.048L209.233 382.298ZM220.31 374.298L220.31 374.798L220.31 374.798V374.298ZM209.233 367.903L208.8 367.653C208.8 367.929 208.993 368.265 209.233 368.403L209.233 367.903ZM197.199 348.163C197.199 347.177 197.891 346.778 198.745 347.271V346.271C197.413 345.501 196.333 346.125 196.333 347.663L197.199 348.163ZM197.199 360.955V348.163L196.333 347.663V360.455L197.199 360.955ZM185.689 354.81L196.766 361.205L196.766 360.205L185.689 353.81L185.689 354.81ZM184.142 355.702C184.142 354.716 184.835 354.317 185.689 354.81V353.81C184.356 353.04 183.276 353.664 183.276 355.202L184.142 355.702ZM184.142 365.527L184.142 355.702L183.276 355.202L183.276 365.027L184.142 365.527ZM185.689 368.205C184.835 367.712 184.142 366.513 184.142 365.527L183.276 365.027C183.276 366.565 184.356 368.436 185.689 369.205V368.205ZM196.766 374.6L185.689 368.205L185.689 369.205L196.766 375.6L196.766 374.6ZM197.199 388.141V375.35L196.333 374.85V387.641L197.199 388.141ZM198.745 390.818C197.891 390.325 197.199 389.126 197.199 388.141L196.333 387.641C196.333 389.179 197.413 391.049 198.745 391.818V390.818ZM207.254 395.731L198.745 390.818L198.745 391.818L207.254 396.731L207.254 395.731ZM208.8 394.838C208.8 395.824 208.107 396.224 207.254 395.731V396.731C208.586 397.5 209.666 396.876 209.666 395.338L208.8 394.838ZM208.8 382.048V394.838L209.666 395.338V382.548L208.8 382.048ZM220.31 388.194L209.233 381.798V382.798L220.31 389.194V388.194ZM221.856 387.301C221.856 388.287 221.164 388.687 220.31 388.194V389.194C221.642 389.963 222.722 389.339 222.722 387.801L221.856 387.301ZM221.856 377.476V387.301L222.722 387.801V377.976L221.856 377.476ZM220.31 374.798C221.164 375.291 221.856 376.49 221.856 377.476L222.722 377.976C222.722 376.438 221.642 374.567 220.31 373.798V374.798ZM209.233 368.403L220.31 374.798L220.31 373.798L209.233 367.403L209.233 368.403ZM208.8 354.861V367.653L209.666 368.153V355.361L208.8 354.861ZM207.254 352.183C208.107 352.676 208.8 353.875 208.8 354.861L209.666 355.361C209.666 353.823 208.586 351.952 207.254 351.183V352.183ZM198.745 347.271L207.254 352.183V351.183L198.745 346.271V347.271Z" fill="#0F2B46"/>
<path d="M133.128 294.266L180.326 321.516" stroke="#0F2B46" stroke-linejoin="round"/>
<path d="M133.128 306.607L180.326 333.857" stroke="#0F2B46" stroke-linejoin="round"/>
<path d="M133.128 318.951L180.326 346.201" stroke="#0F2B46" stroke-linejoin="round"/>
<path d="M133.128 331.293L180.326 358.543" stroke="#0F2B46" stroke-linejoin="round"/>
<path d="M133.128 343.635L180.326 370.885" stroke="#0F2B46" stroke-linejoin="round"/>
<path d="M133.128 355.979L180.326 383.229" stroke="#0F2B46" stroke-linejoin="round"/>
<path fill-rule="evenodd" clip-rule="evenodd" d="M324.75 360.936C324.606 354.656 328.783 348.672 336.362 344.296C348.7 337.172 363.03 337.341 378.985 339.2V387.2C363.03 385.341 348.7 385.172 336.362 392.296C328.783 396.672 324.606 402.656 324.75 408.936V360.936Z" fill="#EAFFE9"/>
<path fill-rule="evenodd" clip-rule="evenodd" d="M378.985 339.202C378.364 336.585 377.872 334.031 377.758 331.551V379.551C377.872 382.031 378.364 384.585 378.985 387.202V339.202Z" fill="#EAFFE9"/>
<path fill-rule="evenodd" clip-rule="evenodd" d="M377.757 331.55C377.464 325.173 379.669 319.293 388.597 314.138C396.177 309.762 406.542 307.351 417.419 307.434C428.285 307.558 438.752 310.151 446.547 314.652C454.342 319.152 458.834 325.196 459.049 331.469V379.469C458.834 373.196 454.342 367.152 446.547 362.652C438.752 358.151 428.285 355.558 417.419 355.434C406.542 355.351 396.177 357.762 388.597 362.138C379.669 367.293 377.464 373.173 377.757 379.55V331.55Z" fill="#EAFFE9"/>
<path fill-rule="evenodd" clip-rule="evenodd" d="M459.05 331.469L460.362 381.25V429.25L459.05 379.469V331.469Z" fill="#EAFFE9"/>
<path fill-rule="evenodd" clip-rule="evenodd" d="M460.361 381.25C460.372 381.846 460.179 382.434 459.793 382.98C459.407 383.526 458.836 384.019 458.113 384.432C457.398 384.85 456.543 385.179 455.598 385.402C454.652 385.625 453.634 385.736 452.602 385.73L366.379 384.972C355.513 384.848 345.046 382.255 337.251 377.754C329.457 373.254 324.964 367.211 324.749 360.938V408.938C324.964 415.211 329.457 421.254 337.251 425.754C345.046 430.255 355.513 432.849 366.379 432.972L452.602 433.73C453.634 433.736 454.652 433.625 455.598 433.402C456.543 433.179 457.398 432.85 458.113 432.432C458.836 432.019 459.407 431.526 459.793 430.98C460.179 430.434 460.372 429.846 460.361 429.25V381.25Z" fill="#0F2B46" stroke="#EAFFE9"/>
<path d="M388.165 313.887C375.759 321.05 376.141 329.592 378.263 338.757C362.585 336.983 348.273 336.919 335.929 344.046C328.23 348.491 323.992 354.567 324.137 360.941L324.137 360.943C324.355 367.309 328.914 373.439 336.819 378.003C344.723 382.567 355.341 385.199 366.367 385.325L366.37 385.325L452.593 386.082L452.596 386.082C453.708 386.089 454.807 385.969 455.829 385.728C456.85 385.488 457.774 385.132 458.546 384.681C459.328 384.235 459.944 383.701 460.36 383.112C460.777 382.522 460.985 381.888 460.974 381.245L460.974 381.244L459.662 331.463L459.662 331.461C459.444 325.095 454.885 318.965 446.98 314.401C439.075 309.837 428.458 307.205 417.432 307.079L417.428 307.079C406.388 306.996 395.863 309.443 388.165 313.887Z" fill="#EAFFE9" stroke="#0F2B46" stroke-linejoin="round"/>
<mask id="mask0_1233_57822" style="mask-type:alpha" maskUnits="userSpaceOnUse" x="323" y="306" width="139" height="81">
<path d="M388.165 313.887C375.759 321.05 376.141 329.592 378.263 338.757C362.585 336.983 348.273 336.919 335.929 344.046C328.23 348.491 323.992 354.567 324.137 360.941L324.137 360.943C324.355 367.309 328.914 373.439 336.819 378.003C344.723 382.567 355.341 385.199 366.367 385.325L366.37 385.325L452.593 386.082L452.596 386.082C453.708 386.089 454.807 385.969 455.829 385.728C456.85 385.488 457.774 385.132 458.546 384.681C459.328 384.235 459.944 383.701 460.36 383.112C460.777 382.522 460.985 381.888 460.974 381.245L460.974 381.244L459.662 331.463L459.662 331.461C459.444 325.095 454.885 318.965 446.98 314.401C439.075 309.837 428.458 307.205 417.432 307.079L417.428 307.079C406.388 306.996 395.863 309.443 388.165 313.887Z" fill="#DEF5FF" stroke="#0F2B46" stroke-linejoin="round"/>
</mask>
<g mask="url(#mask0_1233_57822)">
<path d="M368.185 385.928L378.358 380.054L355.716 360.54L419.048 380.812L400.016 367.55L410.188 361.677L385.776 340.432L449.566 363.193L432.831 348.605L441.691 343.489L418.064 324.544L478.115 346.71L464.005 330.606" stroke="#0F2B46"/>
</g>
<path fill-rule="evenodd" clip-rule="evenodd" d="M512.77 203.189C513.777 203.702 514.406 204.892 514.406 206.616V252.616C514.406 255.929 512.08 259.959 509.21 261.616L410.483 318.616C409.106 319.411 407.853 319.515 406.923 319.042L399.995 315.042C400.925 315.515 402.177 315.411 403.555 314.616L502.282 257.616C505.152 255.959 507.478 251.929 507.478 248.616V202.616C507.478 200.892 506.849 199.702 505.841 199.189L512.77 203.189Z" fill="#EAFFE9" stroke="#0F2B46"/>
<path fill-rule="evenodd" clip-rule="evenodd" d="M406.923 319.042C405.916 318.529 405.287 317.339 405.287 315.616V269.616C405.287 266.302 407.613 262.273 410.483 260.616L509.21 203.616C510.587 202.821 511.84 202.717 512.769 203.19L505.841 199.19C504.911 198.717 503.659 198.821 502.281 199.616L403.555 256.616C400.685 258.273 398.358 262.302 398.358 265.616V311.616C398.358 313.339 398.987 314.529 399.995 315.042L406.923 319.042Z" fill="#EAFFE9" stroke="#0F2B46"/>
<rect width="126" height="58" rx="6" transform="matrix(0.866025 -0.5 0 1 405.287 263.617)" fill="#EAFFE9"/>
<rect width="126" height="58" rx="6" transform="matrix(0.866025 -0.5 0 1 405.287 263.617)" stroke="#0F2B46"/>
<path d="M417.924 285.233C417.924 281.393 418.506 277.793 419.67 274.433C420.834 271.073 422.414 268.113 424.409 265.553C426.405 262.993 428.663 260.985 431.185 259.529C433.624 258.121 435.619 257.449 437.171 257.513C438.751 257.529 439.984 258.129 440.871 259.313C441.785 260.481 442.45 262.049 442.866 264.017L439.125 266.897C438.792 265.393 438.321 264.225 437.711 263.393C437.102 262.529 436.27 262.081 435.217 262.049C434.192 261.969 432.848 262.409 431.185 263.369C429.217 264.505 427.541 266.065 426.155 268.049C424.769 270.033 423.716 272.305 422.996 274.865C422.275 277.393 421.915 280.065 421.915 282.881C421.915 285.697 422.275 287.969 422.996 289.697C423.716 291.393 424.769 292.433 426.155 292.817C427.568 293.185 429.259 292.801 431.227 291.665C433.056 290.609 434.511 289.417 435.591 288.089C436.7 286.745 437.545 285.281 438.127 283.697C438.709 282.113 439.111 280.441 439.333 278.681L443.282 276.401C443.06 278.833 442.464 281.257 441.494 283.673C440.552 286.041 439.222 288.249 437.504 290.297C435.813 292.329 433.707 294.073 431.185 295.529C428.469 297.097 426.114 297.753 424.118 297.497C422.151 297.193 420.626 296.025 419.546 293.993C418.465 291.929 417.924 289.009 417.924 285.233ZM445.982 279.258C445.982 277.562 446.287 276.01 446.897 274.602C447.534 273.178 448.365 271.866 449.391 270.666C450.444 269.45 451.622 268.338 452.924 267.33C454.254 266.306 455.598 265.37 456.956 264.522L462.485 261.09V264.066L457.206 267.354C455.266 268.538 453.742 269.674 452.633 270.762C451.552 271.802 450.79 272.834 450.347 273.858C449.903 274.85 449.682 275.906 449.682 277.026C449.682 278.274 450 279.098 450.638 279.498C451.303 279.85 452.384 279.594 453.88 278.73C455.238 277.946 456.416 277.01 457.414 275.922C458.439 274.818 459.229 273.61 459.783 272.298C460.365 270.938 460.656 269.506 460.656 268.002V261.282C460.656 259.17 460.268 257.874 459.492 257.394C458.716 256.914 457.455 257.178 455.709 258.186C453.991 259.178 452.73 260.242 451.926 261.378C451.123 262.482 450.596 263.682 450.347 264.978L447.063 266.442C447.451 263.946 448.379 261.762 449.848 259.89C451.317 257.986 453.312 256.306 455.834 254.85C458.938 253.058 461.113 252.634 462.36 253.578C463.607 254.522 464.231 256.482 464.231 259.458V275.586L460.739 277.602V272.37L461.363 272.874C460.614 274.586 459.603 276.322 458.328 278.082C457.053 279.81 455.391 281.266 453.34 282.45C451.178 283.698 449.405 284.114 448.019 283.698C446.661 283.234 445.982 281.754 445.982 279.258ZM469.098 247.96L472.673 245.896V254.056L471.925 251.608C472.756 249.304 473.768 247.312 474.959 245.632C476.179 243.936 477.509 242.672 478.95 241.84C479.338 241.616 479.684 241.432 479.989 241.288C480.294 241.144 480.585 241.024 480.862 240.928L480.405 245.08C480.128 245.176 479.851 245.288 479.574 245.416C479.296 245.512 478.992 245.656 478.659 245.848C477.994 246.232 477.315 246.768 476.622 247.456C475.957 248.096 475.306 248.92 474.668 249.928C474.059 250.888 473.574 251.872 473.213 252.88C472.881 253.872 472.715 254.896 472.715 255.952V270.688L469.098 272.776V247.96ZM482.22 252.96C482.22 250.816 482.469 248.768 482.968 246.816C483.467 244.864 484.173 243.064 485.088 241.416C486.002 239.736 487.069 238.256 488.289 236.976C489.536 235.68 490.894 234.608 492.363 233.76C494.58 232.48 496.381 231.968 497.767 232.224C499.152 232.448 500.178 233.28 500.843 234.72C501.508 236.16 501.84 238.048 501.84 240.384V242.496L483.966 252.816V249.696L500.011 240.432L498.224 243.048C498.224 241.032 498.058 239.416 497.725 238.2C497.392 236.984 496.797 236.256 495.938 236.016C495.106 235.76 493.901 236.088 492.321 237C491.046 237.736 489.979 238.624 489.12 239.664C488.289 240.688 487.638 241.816 487.166 243.048C486.695 244.248 486.363 245.512 486.169 246.84C485.975 248.168 485.878 249.504 485.878 250.848C485.878 253.792 486.418 255.832 487.499 256.968C488.607 258.056 490.229 257.984 492.363 256.752C494.164 255.712 495.48 254.568 496.312 253.32C497.171 252.024 497.739 250.624 498.016 249.12L501.508 247.104C501.148 249.68 500.219 252.104 498.723 254.376C497.254 256.6 495.134 258.512 492.363 260.112C489.12 261.984 486.612 262.28 484.839 261C483.093 259.704 482.22 257.024 482.22 252.96Z" fill="#0F2B46"/>
<path fill-rule="evenodd" clip-rule="evenodd" d="M202.032 441.087C201.992 440.335 202.469 439.575 203.464 439L283.139 393C285.052 391.896 288.154 391.896 290.067 393L369.741 439C370.659 439.53 371.137 440.219 371.174 440.913V464.913C371.137 464.219 370.659 463.53 369.741 463L290.067 417C288.154 415.896 285.052 415.896 283.139 417L203.464 463C202.469 463.575 201.992 464.335 202.032 465.087V441.087Z" fill="#EAFFE9" stroke="#EAFFE9" stroke-linejoin="round"/>
<path fill-rule="evenodd" clip-rule="evenodd" d="M371.174 440.914C371.214 441.667 370.736 442.427 369.741 443.001L290.067 489.001C288.154 490.105 285.052 490.105 283.139 489.001L203.464 443.001C202.546 442.471 202.068 441.782 202.032 441.088V465.088C202.068 465.782 202.546 466.471 203.464 467.001L283.139 513.001C285.052 514.105 288.154 514.105 290.067 513.001L369.741 467.001C370.736 466.427 371.214 465.667 371.174 464.914V440.914Z" fill="#EAFFE9" stroke="#EAFFE9" stroke-linejoin="round"/>
<rect x="-0.866025" width="101" height="101" rx="4.5" transform="matrix(0.866025 -0.5 0.866025 0.5 199.884 440.567)" fill="#EAFFE9" stroke="#0F2B46"/>
<rect width="70.1807" height="36" rx="18" transform="matrix(0.866025 -0.5 0.866025 0.5 243 450.91)" fill="#0F2B46"/>
<rect width="70.1807" height="36" rx="18" transform="matrix(0.866025 -0.5 0.866025 0.5 243 450.91)" stroke="#EAFFE9"/>
<path fill-rule="evenodd" clip-rule="evenodd" d="M283.503 428.507C283.344 425.497 285.254 422.457 289.234 420.159C296.886 415.741 309.294 415.741 316.946 420.159C320.62 422.28 322.53 425.033 322.677 427.812V431.812C322.53 429.033 320.62 426.28 316.946 424.159C309.294 419.741 296.886 419.741 289.234 424.159C285.254 426.457 283.344 429.497 283.503 432.507V428.507Z" fill="#0F2B46" stroke="#EAFFE9" stroke-linejoin="round"/>
<path fill-rule="evenodd" clip-rule="evenodd" d="M322.677 427.812C322.836 430.823 320.926 433.862 316.947 436.16C309.294 440.578 296.886 440.578 289.234 436.16C285.56 434.039 283.65 431.286 283.503 428.507V432.507C283.65 435.286 285.56 438.039 289.234 440.16C296.886 444.578 309.294 444.578 316.947 440.16C320.926 437.862 322.836 434.823 322.677 431.812V427.812Z" fill="#0F2B46" stroke="#EAFFE9" stroke-linejoin="round"/>
<circle cx="16" cy="16" r="15.5" transform="matrix(0.866025 0.5 -0.866025 0.5 303.09 412.16)" fill="#0F2B46" stroke="#EAFFE9"/>
<path fill-rule="evenodd" clip-rule="evenodd" d="M285.952 424.465C285.813 421.831 287.484 419.172 290.966 417.161C297.662 413.295 308.519 413.295 315.215 417.161C318.429 419.017 320.1 421.426 320.229 423.857V425.857C320.1 423.426 318.429 421.017 315.215 419.161C308.519 415.295 297.662 415.295 290.966 419.161C287.484 421.172 285.813 423.831 285.952 426.465V424.465Z" fill="#EAFFE9" stroke="#0F2B46" stroke-linejoin="round"/>
<path fill-rule="evenodd" clip-rule="evenodd" d="M320.229 423.857C320.368 426.491 318.697 429.151 315.215 431.161C308.519 435.027 297.662 435.027 290.966 431.161C287.752 429.306 286.081 426.897 285.952 424.465V426.465C286.081 428.897 287.752 431.306 290.966 433.161C297.662 437.027 308.519 437.027 315.215 433.161C318.697 431.151 320.368 428.491 320.229 425.857V423.857Z" fill="#EAFFE9" stroke="#0F2B46" stroke-linejoin="round"/>
<circle cx="14" cy="14" r="13.5" transform="matrix(0.866025 0.5 -0.866025 0.5 303.09 410.16)" fill="#EAFFE9" stroke="#0F2B46"/>
<path fill-rule="evenodd" clip-rule="evenodd" d="M147.746 387.871C151.001 386.214 153.034 382.368 153.034 376.801C153.034 366.094 145.517 353.074 136.244 347.721C131.794 345.151 127.747 344.815 124.743 346.344L130.96 342.754C133.965 341.225 138.011 341.561 142.462 344.131C151.734 349.484 159.251 362.504 159.251 373.211C159.251 378.779 157.219 382.625 153.964 384.281L147.746 387.871Z" fill="#EAFFE9" stroke="#0F2B46"/>
<path fill-rule="evenodd" clip-rule="evenodd" d="M124.743 346.344C121.488 348 119.456 351.846 119.456 357.414C119.456 368.121 126.972 381.14 136.245 386.494C140.696 389.064 144.742 389.4 147.747 387.871L153.964 384.281C150.96 385.81 146.913 385.474 142.462 382.904C133.19 377.551 125.673 364.531 125.673 353.824C125.673 348.256 127.706 344.411 130.961 342.754L124.743 346.344Z" fill="#EAFFE9" stroke="#0F2B46"/>
<path fill-rule="evenodd" clip-rule="evenodd" d="M175.506 451.215L97.5 406.178C97.5 399.664 100.978 391.449 107.92 387.142L114.138 383.553C107.196 387.859 103.718 396.074 103.718 402.588L181.724 447.625L175.506 451.215Z" fill="#EAFFE9" stroke="#0F2B46"/>
<path fill-rule="evenodd" clip-rule="evenodd" d="M107.92 387.144C114.328 383.169 123.687 382.526 135.986 389.627C161.609 404.42 175.506 438.093 175.506 451.217L181.723 447.627C181.723 434.504 167.827 400.83 142.204 386.037C129.905 378.936 120.545 379.58 114.137 383.554L107.92 387.144Z" fill="#EAFFE9" stroke="#0F2B46"/>
<path d="M136.245 386.494C145.517 391.848 153.034 387.508 153.034 376.801C153.034 366.094 145.517 353.074 136.245 347.721C126.972 342.367 119.455 346.707 119.455 357.414C119.455 368.121 126.972 381.141 136.245 386.494Z" fill="#EAFFE9"/>
<path d="M175.506 451.216L97.5 406.179C97.5 393.652 110.363 374.832 135.986 389.626C161.61 404.419 175.506 438.093 175.506 451.216Z" fill="#EAFFE9"/>
<path d="M136.245 386.494C145.517 391.848 153.034 387.508 153.034 376.801C153.034 366.094 145.517 353.074 136.245 347.721C126.972 342.367 119.455 346.707 119.455 357.414C119.455 368.121 126.972 381.141 136.245 386.494Z" stroke="#0F2B46"/>
<path d="M175.506 451.216L97.5 406.179C97.5 393.652 110.363 374.832 135.986 389.626C161.61 404.419 175.506 438.093 175.506 451.216Z" stroke="#0F2B46"/>
</svg>
